<svg width="1080" height="739" viewBox="0 0 1080 739" fill="none" xmlns="http://www.w3.org/2000/svg">
<g clip-path="url(#clip0)">
<rect width="1080" height="738.13" fill="white"/>
<rect x="0.5" y="0.5" width="1079" height="1079" rx="4.5" fill="#FFFAF1" stroke="#2D1C13"/>
<rect x="32.5754" y="32.5754" width="90.2088" height="90.2088" fill="#F6E4D0"/>
<rect x="957.216" y="32.5754" width="90.2088" height="90.2088" fill="#F6E4D0"/>
<rect x="496.148" y="496.148" width="90.2088" height="90.2088" fill="#F6E4D0"/>
<rect x="30.5696" y="30.5696" width="1018.86" height="1018.86" stroke="#2D1C13"/>
<line x1="123.284" y1="30.0696" x2="123.284" y2="1049.93" stroke="#2D1C13"/>
<line x1="215.999" y1="30.0696" x2="215.999" y2="1049.93" stroke="#2D1C13"/>
<line x1="308.714" y1="30.0696" x2="308.713" y2="1049.93" stroke="#2D1C13"/>
<line x1="401.428" y1="30.0696" x2="401.428" y2="1049.93" stroke="#2D1C13"/>
<line x1="494.143" y1="30.0696" x2="494.143" y2="1049.93" stroke="#2D1C13"/>
<line x1="586.857" y1="30.0696" x2="586.857" y2="1049.93" stroke="#2D1C13"/>
<line x1="679.572" y1="30.0696" x2="679.572" y2="1049.93" stroke="#2D1C13"/>
<line x1="772.286" y1="30.0696" x2="772.286" y2="1049.93" stroke="#2D1C13"/>
<line x1="865.001" y1="30.0696" x2="865.001" y2="1049.93" stroke="#2D1C13"/>
<line x1="957.716" y1="30.0696" x2="957.716" y2="1049.93" stroke="#2D1C13"/>
<line x1="1049.93" y1="123.284" x2="30.0696" y2="123.284" stroke="#2D1C13"/>
<line x1="1049.93" y1="215.999" x2="30.0696" y2="215.999" stroke="#2D1C13"/>
<line x1="1049.93" y1="308.714" x2="30.0696" y2="308.713" stroke="#2D1C13"/>
<line x1="1049.93" y1="401.428" x2="30.0696" y2="401.428" stroke="#2D1C13"/>
<line x1="1049.93" y1="494.143" x2="30.0696" y2="494.143" stroke="#2D1C13"/>
<line x1="1049.93" y1="586.857" x2="30.0696" y2="586.857" stroke="#2D1C13"/>
<line x1="1049.93" y1="679.572" x2="30.0696" y2="679.572" stroke="#2D1C13"/>
<rect x="0.5" y="0.5" width="1079" height="1079" rx="4.5" fill="#FFFAF1" stroke="#2D1C13"/>
<rect x="32.5754" y="32.5754" width="90.2088" height="90.2088" fill="#F6E4D0"/>
<rect x="957.216" y="32.5754" width="90.2088" height="90.2088" fill="#F6E4D0"/>
<rect x="496.148" y="496.148" width="90.2088" height="90.2088" fill="#F6E4D0"/>
<rect x="30.5696" y="30.5696" width="1018.86" height="1018.86" stroke="#2D1C13"/>
<line x1="123.284" y1="30.0696" x2="123.284" y2="1049.93" stroke="#2D1C13"/>
<line x1="215.999" y1="30.0696" x2="215.999" y2="1049.93" stroke="#2D1C13"/>
<line x1="308.714" y1="30.0696" x2="308.713" y2="1049.93" stroke="#2D1C13"/>
<line x1="401.428" y1="30.0696" x2="401.428" y2="1049.93" stroke="#2D1C13"/>
<line x1="494.143" y1="30.0696" x2="494.143" y2="1049.93" stroke="#2D1C13"/>
<line x1="586.857" y1="30.0696" x2="586.857" y2="1049.93" stroke="#2D1C13"/>
<line x1="679.572" y1="30.0696" x2="679.572" y2="1049.93" stroke="#2D1C13"/>
<line x1="772.286" y1="30.0696" x2="772.286" y2="1049.93" stroke="#2D1C13"/>
<line x1="865.001" y1="30.0696" x2="865.001" y2="1049.93" stroke="#2D1C13"/>
<line x1="957.716" y1="30.0696" x2="957.716" y2="1049.93" stroke="#2D1C13"/>
<line x1="1049.93" y1="123.284" x2="30.0696" y2="123.284" stroke="#2D1C13"/>
<line x1="1049.93" y1="215.999" x2="30.0696" y2="215.999" stroke="#2D1C13"/>
<line x1="1049.93" y1="308.714" x2="30.0696" y2="308.713" stroke="#2D1C13"/>
<line x1="1049.93" y1="401.428" x2="30.0696" y2="401.428" stroke="#2D1C13"/>
<line x1="1049.93" y1="494.143" x2="30.0696" y2="494.143" stroke="#2D1C13"/>
<line x1="1049.93" y1="586.857" x2="30.0696" y2="586.857" stroke="#2D1C13"/>
<line x1="1049.93" y1="679.572" x2="30.0696" y2="679.572" stroke="#2D1C13"/>
<line x1="81.5638" y1="107.123" x2="81.5638" y2="47.6102" stroke="#BFAA92"/>
<path d="M70.341 64.7845L97.7762 67.8151C93.8009 74.4727 87.6698 88.9146 94.9476 93.4212L67.5124 90.3906C64.4295 88.9701 60.6792 81.8602 70.341 64.7845Z" fill="#BFAA92" stroke="#BFAA92"/>
<path d="M80.1328 98.3762C54.1559 98.3762 48.8644 91.6786 49.4657 88.3299C45.2564 95.4841 45.4969 109.884 80.1328 110.249C114.769 110.614 114.708 95.7885 110.349 88.3299C111.1 91.6786 106.11 98.3762 80.1328 98.3762Z" fill="#BFAA92" stroke="#BFAA92"/>
<rect x="66.6529" y="62.9694" width="32.3518" height="2.69598" transform="rotate(5.97621 66.6529 62.9694)" fill="#BFAA92"/>
<line x1="80.1784" y1="51.9354" x2="50.944" y2="91.6105" stroke="#BFAA92" stroke-width="0.5"/>
<line x1="80.1795" y1="51.6403" x2="110.458" y2="93.4037" stroke="#BFAA92" stroke-width="0.5"/>
<line x1="81.2449" y1="52.7194" x2="104.215" y2="98.6591" stroke="#BFAA92" stroke-width="0.5"/>
<line x1="81.2361" y1="52.7034" x2="107.338" y2="96.5549" stroke="#BFAA92" stroke-width="0.5"/>
<circle cx="63.2058" cy="97.6612" r="4.11108" fill="#BFAA92" stroke="#F6E4D0" stroke-width="0.5"/>
<circle cx="71.4289" cy="99.8803" r="4.11108" fill="#BFAA92" stroke="#F6E4D0" stroke-width="0.5"/>
<circle cx="79.6503" cy="100.303" r="4.11108" fill="#BFAA92" stroke="#F6E4D0" stroke-width="0.5"/>
<circle cx="87.8731" cy="99.8803" r="4.11108" fill="#BFAA92" stroke="#F6E4D0" stroke-width="0.5"/>
<circle cx="96.0957" cy="98.8358" r="4.11108" fill="#BFAA92" stroke="#F6E4D0" stroke-width="0.5"/>
<line x1="77.4407" y1="53.0767" x2="83.4069" y2="53.0767" stroke="#BFAA92"/>
<line x1="1006.2" y1="107.123" x2="1006.2" y2="47.6102" stroke="#BFAA92"/>
<path d="M994.981 64.7845L1022.42 67.8151C1018.44 74.4727 1012.31 88.9146 1019.59 93.4212L992.153 90.3906C989.07 88.9701 985.32 81.8602 994.981 64.7845Z" fill="#BFAA92" stroke="#BFAA92"/>
<path d="M1004.77 98.3762C978.796 98.3762 973.505 91.6786 974.106 88.3299C969.897 95.4841 970.137 109.884 1004.77 110.249C1039.41 110.614 1039.35 95.7885 1034.99 88.3299C1035.74 91.6786 1030.75 98.3762 1004.77 98.3762Z" fill="#BFAA92" stroke="#BFAA92"/>
<rect x="991.293" y="62.9694" width="32.3518" height="2.69598" transform="rotate(5.97621 991.293 62.9694)" fill="#BFAA92"/>
<line x1="1004.82" y1="51.9354" x2="975.584" y2="91.6105" stroke="#BFAA92" stroke-width="0.5"/>
<line x1="1004.82" y1="51.6403" x2="1035.1" y2="93.4037" stroke="#BFAA92" stroke-width="0.5"/>
<line x1="1005.89" y1="52.7194" x2="1028.86" y2="98.6591" stroke="#BFAA92" stroke-width="0.5"/>
<line x1="1005.88" y1="52.7034" x2="1031.98" y2="96.5549" stroke="#BFAA92" stroke-width="0.5"/>
<circle cx="987.846" cy="97.6612" r="4.11108" fill="#BFAA92" stroke="#F6E4D0" stroke-width="0.5"/>
<circle cx="996.069" cy="99.8803" r="4.11108" fill="#BFAA92" stroke="#F6E4D0" stroke-width="0.5"/>
<circle cx="1004.29" cy="100.303" r="4.11108" fill="#BFAA92" stroke="#F6E4D0" stroke-width="0.5"/>
<circle cx="1012.51" cy="99.8803" r="4.11108" fill="#BFAA92" stroke="#F6E4D0" stroke-width="0.5"/>
<circle cx="1020.74" cy="98.8358" r="4.11108" fill="#BFAA92" stroke="#F6E4D0" stroke-width="0.5"/>
<line x1="1002.08" y1="53.0767" x2="1008.05" y2="53.0767" stroke="#BFAA92"/>
<path d="M540.255 518.819L566.173 547.036H514.338L540.255 518.819Z" fill="#BFAA92"/>
<rect x="514.485" y="546.918" width="51.5411" height="11.6383" fill="#BFAA92"/>
<rect x="513.689" y="538.747" width="20.0464" height="32.5754" fill="#BFAA92"/>
<rect x="548.77" y="546.265" width="17.5406" height="25.058" fill="#BFAA92"/>
<rect x="-0.810304" y="0.193225" width="56.3095" height="5.15654" transform="matrix(0.681978 -0.731373 0.938631 0.344923 505.733 548.663)" fill="#BFAA92" stroke="#F6E4D0"/>
<rect x="0.810304" y="0.193225" width="56.0871" height="5.15654" transform="matrix(-0.681978 -0.731373 -0.938631 0.344923 575.373 549.686)" fill="#BFAA92" stroke="#F6E4D0"/>
<circle cx="540.255" cy="541.099" r="7.98177" fill="#BFAA92" stroke="#F6E4D0"/>
<rect x="528.948" y="554.731" width="4.32523" height="20.9514" fill="#BFAA92" stroke="#F6E4D0"/>
<rect x="547.237" y="554.731" width="4.32523" height="20.9514" fill="#BFAA92" stroke="#F6E4D0"/>
<rect x="554.888" y="554.731" width="4.32523" height="29.2645" transform="rotate(90 554.888 554.731)" fill="#BFAA92" stroke="#F6E4D0"/>
<circle cx="620" cy="234" r="45" fill="#D15D39" stroke="#6B6054" stroke-width="10"/>
<circle cx="809" cy="240" r="45" fill="#D15D39" stroke="#6B6054" stroke-width="10"/>
<circle cx="542" cy="541" r="45" fill="#D15D39" stroke="#6B6054" stroke-width="10"/>
<circle cx="442" cy="679" r="45" fill="#D15D39" stroke="#6B6054" stroke-width="10"/>
<circle cx="774" cy="486" r="45" fill="#D15D39" stroke="#6B6054" stroke-width="10"/>
<circle cx="809" cy="667" r="45" fill="#D15D39" stroke="#6B6054" stroke-width="10"/>
<circle cx="1017" cy="647" r="45" fill="#D15D39" stroke="#6B6054" stroke-width="10"/>
<circle cx="950" cy="317" r="45" fill="#D15D39" stroke="#6B6054" stroke-width="10"/>
<circle cx="715" cy="340" r="45" fill="#FFC90E" stroke="#6B6054" stroke-width="10"/>
<circle cx="456" cy="225" r="45" fill="#FFC90E" stroke="#6B6054" stroke-width="10"/>
<circle cx="723" cy="464" r="45" fill="#FFC90E" stroke="#6B6054" stroke-width="10"/>
<circle cx="566" cy="104" r="45" fill="#FFC90E" stroke="#6B6054" stroke-width="10"/>
<circle cx="626" cy="555" r="45" fill="#FFC90E" stroke="#6B6054" stroke-width="10"/>
<circle cx="1041" cy="504" r="45" fill="#FFC90E" stroke="#6B6054" stroke-width="10"/>
<circle cx="899.5" cy="553.5" r="50.5" fill="#FFC90E" stroke="#6B6054" stroke-width="10"/>
<path fill-rule="evenodd" clip-rule="evenodd" d="M899.047 568.48C918.63 568.933 934.777 557.567 935.112 543.093C935.221 538.371 933.634 533.901 930.766 530.006C930.803 530.476 930.816 530.948 930.805 531.424C930.539 542.919 916.24 551.911 898.868 551.508C881.645 551.11 867.867 541.627 867.892 530.263C865.61 533.625 864.289 537.417 864.196 541.451C863.86 555.925 879.464 568.026 899.047 568.48Z" fill="#6B6054"/>
<mask id="path-99-inside-1" fill="white">
<path fill-rule="evenodd" clip-rule="evenodd" d="M872.065 570.923H928.277C928.277 570.923 928.277 570.922 928.277 570.922C928.277 553.038 915.694 538.539 900.171 538.539C884.648 538.539 872.065 553.038 872.065 570.922C872.065 570.922 872.065 570.923 872.065 570.923Z"/>
</mask>
<path fill-rule="evenodd" clip-rule="evenodd" d="M872.065 570.923H928.277C928.277 570.923 928.277 570.922 928.277 570.922C928.277 553.038 915.694 538.539 900.171 538.539C884.648 538.539 872.065 553.038 872.065 570.922C872.065 570.922 872.065 570.923 872.065 570.923Z" fill="#6B6054"/>
<path d="M872.065 570.923V571.923H871.065L871.065 570.923L872.065 570.923ZM928.277 570.923H929.277V571.923H928.277V570.923ZM872.065 569.923H928.277V571.923H872.065V569.923ZM929.277 570.922C929.277 570.922 929.277 570.922 929.277 570.922C929.277 570.922 929.277 570.922 929.277 570.922C929.277 570.922 929.277 570.922 929.277 570.922C929.277 570.922 929.277 570.922 929.277 570.922C929.277 570.922 929.277 570.922 929.277 570.922C929.277 570.922 929.277 570.922 929.277 570.922C929.277 570.922 929.277 570.922 929.277 570.922C929.277 570.922 929.277 570.922 929.277 570.922C929.277 570.922 929.277 570.922 929.277 570.922C929.277 570.922 929.277 570.922 929.277 570.922C929.277 570.922 929.277 570.922 929.277 570.922C929.277 570.922 929.277 570.922 929.277 570.922C929.277 570.922 929.277 570.922 929.277 570.922C929.277 570.922 929.277 570.922 929.277 570.922C929.277 570.922 929.277 570.922 929.277 570.922C929.277 570.922 929.277 570.922 929.277 570.922C929.277 570.922 929.277 570.922 929.277 570.922C929.277 570.922 929.277 570.922 929.277 570.922C929.277 570.922 929.277 570.922 929.277 570.922C929.277 570.922 929.277 570.922 929.277 570.922C929.277 570.922 929.277 570.922 929.277 570.922C929.277 570.922 929.277 570.922 929.277 570.922C929.277 570.922 929.277 570.922 929.277 570.922C929.277 570.922 929.277 570.922 929.277 570.922C929.277 570.922 929.277 570.922 929.277 570.922C929.277 570.922 929.277 570.922 929.277 570.922C929.277 570.922 929.277 570.922 929.277 570.922C929.277 570.922 929.277 570.922 929.277 570.922C929.277 570.922 929.277 570.922 929.277 570.922C929.277 570.922 929.277 570.922 929.277 570.922C929.277 570.922 929.277 570.922 929.277 570.922C929.277 570.922 929.277 570.922 929.277 570.922C929.277 570.922 929.277 570.922 929.277 570.922C929.277 570.922 929.277 570.922 929.277 570.922C929.277 570.922 929.277 570.922 929.277 570.922C929.277 570.922 929.277 570.922 929.277 570.922C929.277 570.922 929.277 570.922 929.277 570.922C929.277 570.922 929.277 570.922 929.277 570.922C929.277 570.922 929.277 570.922 929.277 570.922C929.277 570.922 929.277 570.922 929.277 570.922C929.277 570.922 929.277 570.922 929.277 570.922C929.277 570.922 929.277 570.922 929.277 570.922C929.277 570.922 929.277 570.922 929.277 570.922C929.277 570.922 929.277 570.922 929.277 570.922C929.277 570.922 929.277 570.922 929.277 570.922C929.277 570.922 929.277 570.922 929.277 570.922C929.277 570.922 929.277 570.922 929.277 570.922C929.277 570.922 929.277 570.922 929.277 570.922C929.277 570.922 929.277 570.922 929.277 570.922C929.277 570.922 929.277 570.922 929.277 570.922C929.277 570.922 929.277 570.922 929.277 570.922C929.277 570.922 929.277 570.922 929.277 570.922C929.277 570.922 929.277 570.922 929.277 570.922C929.277 570.922 929.277 570.922 929.277 570.922C929.277 570.922 929.277 570.922 929.277 570.922C929.277 570.922 929.277 570.922 929.277 570.922C929.277 570.922 929.277 570.922 929.277 570.922C929.277 570.922 929.277 570.922 929.277 570.922C929.277 570.922 929.277 570.922 929.277 570.922C929.277 570.922 929.277 570.922 929.277 570.922C929.277 570.922 929.277 570.922 929.277 570.922C929.277 570.922 929.277 570.922 929.277 570.922C929.277 570.922 929.277 570.922 929.277 570.922C929.277 570.922 929.277 570.922 929.277 570.922C929.277 570.922 929.277 570.922 929.277 570.922C929.277 570.922 929.277 570.922 929.277 570.922C929.277 570.922 929.277 570.922 929.277 570.922C929.277 570.922 929.277 570.922 929.277 570.922C929.277 570.922 929.277 570.922 929.277 570.922C929.277 570.922 929.277 570.922 929.277 570.922C929.277 570.922 929.277 570.922 929.277 570.922C929.277 570.922 929.277 570.922 929.277 570.922C929.277 570.922 929.277 570.922 929.277 570.922C929.277 570.922 929.277 570.922 929.277 570.922C929.277 570.922 929.277 570.922 929.277 570.922C929.277 570.922 929.277 570.922 929.277 570.922C929.277 570.922 929.277 570.922 929.277 570.922C929.277 570.922 929.277 570.922 929.277 570.922C929.277 570.922 929.277 570.922 929.277 570.922C929.277 570.922 929.277 570.922 929.277 570.922C929.277 570.922 929.277 570.922 929.277 570.922C929.277 570.922 929.277 570.922 929.277 570.922C929.277 570.922 929.277 570.922 929.277 570.922C929.277 570.922 929.277 570.922 929.277 570.922C929.277 570.922 929.277 570.922 929.277 570.922C929.277 570.922 929.277 570.922 929.277 570.922C929.277 570.922 929.277 570.922 929.277 570.922C929.277 570.922 929.277 570.922 929.277 570.922C929.277 570.922 929.277 570.922 929.277 570.922C929.277 570.922 929.277 570.922 929.277 570.922C929.277 570.922 929.277 570.922 929.277 570.922C929.277 570.922 929.277 570.922 929.277 570.922C929.277 570.922 929.277 570.922 929.277 570.922C929.277 570.922 929.277 570.922 929.277 570.922C929.277 570.922 929.277 570.922 929.277 570.922C929.277 570.922 929.277 570.922 929.277 570.922C929.277 570.922 929.277 570.922 929.277 570.922C929.277 570.922 929.277 570.922 929.277 570.922C929.277 570.922 929.277 570.922 929.277 570.922C929.277 570.922 929.277 570.922 929.277 570.922C929.277 570.922 929.277 570.922 929.277 570.922C929.277 570.922 929.277 570.922 929.277 570.922C929.277 570.922 929.277 570.922 929.277 570.922C929.277 570.922 929.277 570.922 929.277 570.922C929.277 570.922 929.277 570.922 929.277 570.922C929.277 570.922 929.277 570.922 929.277 570.922C929.277 570.922 929.277 570.922 929.277 570.922C929.277 570.922 929.277 570.922 929.277 570.922C929.277 570.922 929.277 570.922 929.277 570.922C929.277 570.922 929.277 570.922 929.277 570.922C929.277 570.922 929.277 570.922 929.277 570.922C929.277 570.922 929.277 570.922 929.277 570.922C929.277 570.922 929.277 570.922 929.277 570.922C929.277 570.922 929.277 570.922 929.277 570.922C929.277 570.922 929.277 570.922 929.277 570.922C929.277 570.922 929.277 570.922 929.277 570.922C929.277 570.922 929.277 570.922 929.277 570.922C929.277 570.922 929.277 570.922 929.277 570.922C929.277 570.922 929.277 570.922 929.277 570.922C929.277 570.922 929.277 570.922 929.277 570.922C929.277 570.922 929.277 570.922 929.277 570.922C929.277 570.922 929.277 570.922 929.277 570.922C929.277 570.922 929.277 570.922 929.277 570.922C929.277 570.922 929.277 570.922 929.277 570.922C929.277 570.922 929.277 570.922 929.277 570.922C929.277 570.922 929.277 570.922 929.277 570.922C929.277 570.922 929.277 570.922 929.277 570.922C929.277 570.922 929.277 570.922 929.277 570.922C929.277 570.922 929.277 570.922 929.277 570.922C929.277 570.922 929.277 570.922 929.277 570.922C929.277 570.922 929.277 570.922 929.277 570.922C929.277 570.922 929.277 570.922 929.277 570.922C929.277 570.922 929.277 570.922 929.277 570.922C929.277 570.922 929.277 570.922 929.277 570.922C929.277 570.922 929.277 570.922 929.277 570.922C929.277 570.922 929.277 570.922 929.277 570.922C929.277 570.922 929.277 570.922 929.277 570.922C929.277 570.922 929.277 570.922 929.277 570.922C929.277 570.922 929.277 570.922 929.277 570.922C929.277 570.922 929.277 570.922 929.277 570.922C929.277 570.922 929.277 570.922 929.277 570.922C929.277 570.922 929.277 570.922 929.277 570.922C929.277 570.922 929.277 570.922 929.277 570.922C929.277 570.922 929.277 570.922 929.277 570.922C929.277 570.922 929.277 570.922 929.277 570.922C929.277 570.922 929.277 570.922 929.277 570.922C929.277 570.922 929.277 570.922 929.277 570.922C929.277 570.922 929.277 570.922 929.277 570.922C929.277 570.922 929.277 570.922 929.277 570.922C929.277 570.922 929.277 570.922 929.277 570.922C929.277 570.922 929.277 570.922 929.277 570.922C929.277 570.922 929.277 570.922 929.277 570.922C929.277 570.922 929.277 570.922 929.277 570.922C929.277 570.922 929.277 570.922 929.277 570.922C929.277 570.922 929.277 570.922 929.277 570.922C929.277 570.922 929.277 570.922 929.277 570.922C929.277 570.922 929.277 570.922 929.277 570.922C929.277 570.922 929.277 570.922 929.277 570.922C929.277 570.922 929.277 570.922 929.277 570.922C929.277 570.922 929.277 570.922 929.277 570.922C929.277 570.922 929.277 570.922 929.277 570.922C929.277 570.922 929.277 570.922 929.277 570.922C929.277 570.922 929.277 570.922 929.277 570.922C929.277 570.922 929.277 570.922 929.277 570.922C929.277 570.922 929.277 570.922 929.277 570.922C929.277 570.922 929.277 570.922 929.277 570.922C929.277 570.922 929.277 570.922 929.277 570.922C929.277 570.922 929.277 570.922 929.277 570.922C929.277 570.922 929.277 570.922 929.277 570.922C929.277 570.922 929.277 570.922 929.277 570.922C929.277 570.922 929.277 570.922 929.277 570.922C929.277 570.922 929.277 570.922 929.277 570.922C929.277 570.922 929.277 570.922 929.277 570.922C929.277 570.922 929.277 570.922 929.277 570.922C929.277 570.922 929.277 570.922 929.277 570.922C929.277 570.922 929.277 570.922 929.277 570.922C929.277 570.922 929.277 570.922 929.277 570.922C929.277 570.922 929.277 570.922 929.277 570.922C929.277 570.922 929.277 570.922 929.277 570.922C929.277 570.922 929.277 570.922 929.277 570.922C929.277 570.922 929.277 570.922 929.277 570.922C929.277 570.922 929.277 570.922 929.277 570.922C929.277 570.922 929.277 570.922 929.277 570.922C929.277 570.922 929.277 570.922 929.277 570.922C929.277 570.922 929.277 570.922 929.277 570.922C929.277 570.922 929.277 570.922 929.277 570.922C929.277 570.922 929.277 570.922 929.277 570.922C929.277 570.922 929.277 570.922 929.277 570.922C929.277 570.922 929.277 570.922 929.277 570.922C929.277 570.922 929.277 570.922 929.277 570.922C929.277 570.922 929.277 570.922 929.277 570.922C929.277 570.922 929.277 570.922 929.277 570.922C929.277 570.922 929.277 570.922 929.277 570.922C929.277 570.922 929.277 570.922 929.277 570.922C929.277 570.922 929.277 570.922 929.277 570.922C929.277 570.922 929.277 570.922 929.277 570.922C929.277 570.922 929.277 570.922 929.277 570.922C929.277 570.922 929.277 570.922 929.277 570.922C929.277 570.922 929.277 570.922 929.277 570.922C929.277 570.922 929.277 570.922 929.277 570.922C929.277 570.922 929.277 570.922 929.277 570.922C929.277 570.922 929.277 570.922 929.277 570.922C929.277 570.922 929.277 570.922 929.277 570.922C929.277 570.922 929.277 570.922 929.277 570.922C929.277 570.922 929.277 570.922 929.277 570.922C929.277 570.922 929.277 570.922 929.277 570.922C929.277 570.922 929.277 570.922 929.277 570.922C929.277 570.922 929.277 570.922 929.277 570.922C929.277 570.922 929.277 570.922 929.277 570.922C929.277 570.922 929.277 570.922 929.277 570.922C929.277 570.922 929.277 570.922 929.277 570.922C929.277 570.922 929.277 570.922 929.277 570.922C929.277 570.922 929.277 570.922 929.277 570.922C929.277 570.922 929.277 570.922 929.277 570.922C929.277 570.922 929.277 570.922 929.277 570.922C929.277 570.922 929.277 570.922 929.277 570.922C929.277 570.922 929.277 570.922 929.277 570.922C929.277 570.922 929.277 570.922 929.277 570.922C929.277 570.922 929.277 570.922 929.277 570.922C929.277 570.922 929.277 570.922 929.277 570.922C929.277 570.922 929.277 570.922 929.277 570.922C929.277 570.922 929.277 570.922 929.277 570.922C929.277 570.922 929.277 570.922 929.277 570.922C929.277 570.922 929.277 570.922 929.277 570.922C929.277 570.922 929.277 570.922 929.277 570.922C929.277 570.922 929.277 570.922 929.277 570.922C929.277 570.922 929.277 570.922 929.277 570.922C929.277 570.922 929.277 570.922 929.277 570.922C929.277 570.922 929.277 570.922 929.277 570.922C929.277 570.922 929.277 570.922 929.277 570.922C929.277 570.922 929.277 570.922 929.277 570.922C929.277 570.922 929.277 570.922 929.277 570.922C929.277 570.922 929.277 570.922 929.277 570.922C929.277 570.922 929.277 570.922 929.277 570.922C929.277 570.922 929.277 570.922 929.277 570.922C929.277 570.922 929.277 570.922 929.277 570.922C929.277 570.922 929.277 570.922 929.277 570.922C929.277 570.922 929.277 570.922 929.277 570.922C929.277 570.922 929.277 570.922 929.277 570.922C929.277 570.922 929.277 570.922 929.277 570.922C929.277 570.922 929.277 570.922 929.277 570.922C929.277 570.922 929.277 570.922 929.277 570.922C929.277 570.922 929.277 570.922 929.277 570.922C929.277 570.922 929.277 570.922 929.277 570.922C929.277 570.922 929.277 570.922 929.277 570.922C929.277 570.922 929.277 570.922 929.277 570.922C929.277 570.922 929.277 570.922 929.277 570.922C929.277 570.922 929.277 570.922 929.277 570.922C929.277 570.922 929.277 570.922 929.277 570.922C929.277 570.922 929.277 570.922 929.277 570.922C929.277 570.922 929.277 570.922 929.277 570.922C929.277 570.922 929.277 570.922 929.277 570.922C929.277 570.922 929.277 570.922 929.277 570.922C929.277 570.922 929.277 570.922 929.277 570.922C929.277 570.922 929.277 570.922 929.277 570.922C929.277 570.922 929.277 570.922 929.277 570.922C929.277 570.922 929.277 570.922 929.277 570.922C929.277 570.922 929.277 570.922 929.277 570.922C929.277 570.922 929.277 570.922 929.277 570.922C929.277 570.922 929.277 570.922 929.277 570.922C929.277 570.922 929.277 570.922 929.277 570.922C929.277 570.922 929.277 570.922 929.277 570.922C929.277 570.922 929.277 570.922 929.277 570.922C929.277 570.922 929.277 570.922 929.277 570.922C929.277 570.922 929.277 570.922 929.277 570.922C929.277 570.922 929.277 570.922 929.277 570.922C929.277 570.922 929.277 570.922 929.277 570.922C929.277 570.922 929.277 570.922 929.277 570.922C929.277 570.922 929.277 570.922 929.277 570.922C929.277 570.922 929.277 570.922 929.277 570.922C929.277 570.922 929.277 570.922 929.277 570.922C929.277 570.922 929.277 570.922 929.277 570.922C929.277 570.922 929.277 570.922 929.277 570.922C929.277 570.923 929.277 570.923 929.277 570.923C929.277 570.923 929.277 570.923 929.277 570.923C929.277 570.923 929.277 570.923 929.277 570.923C929.277 570.923 929.277 570.923 929.277 570.923C929.277 570.923 929.277 570.923 929.277 570.923C929.277 570.923 929.277 570.923 929.277 570.923C929.277 570.923 929.277 570.923 929.277 570.923C929.277 570.923 929.277 570.923 929.277 570.923C929.277 570.923 929.277 570.923 929.277 570.923C929.277 570.923 929.277 570.923 929.277 570.923C929.277 570.923 929.277 570.923 929.277 570.923C929.277 570.923 929.277 570.923 929.277 570.923C929.277 570.923 929.277 570.923 929.277 570.923C929.277 570.923 929.277 570.923 929.277 570.923C929.277 570.923 929.277 570.923 929.277 570.923C929.277 570.923 929.277 570.923 929.277 570.923C929.277 570.923 929.277 570.923 929.277 570.923C929.277 570.923 929.277 570.923 929.277 570.923C929.277 570.923 929.277 570.923 929.277 570.923C929.277 570.923 929.277 570.923 929.277 570.923C929.277 570.923 929.277 570.923 929.277 570.923C929.277 570.923 929.277 570.923 929.277 570.923C929.277 570.923 929.277 570.923 929.277 570.923C929.277 570.923 929.277 570.923 929.277 570.923C929.277 570.923 929.277 570.923 929.277 570.923C929.277 570.923 929.277 570.923 929.277 570.923C929.277 570.923 929.277 570.923 929.277 570.923C929.277 570.923 929.277 570.923 929.277 570.923C929.277 570.923 929.277 570.923 929.277 570.923C929.277 570.923 929.277 570.923 929.277 570.923C929.277 570.923 929.277 570.923 929.277 570.923C929.277 570.923 929.277 570.923 929.277 570.923C929.277 570.923 929.277 570.923 929.277 570.923C929.277 570.923 929.277 570.923 929.277 570.923C929.277 570.923 929.277 570.923 929.277 570.923C929.277 570.923 929.277 570.923 929.277 570.923C929.277 570.923 929.277 570.923 929.277 570.923C929.277 570.923 929.277 570.923 929.277 570.923C929.277 570.923 929.277 570.923 929.277 570.923C929.277 570.923 929.277 570.923 929.277 570.923C929.277 570.923 929.277 570.923 929.277 570.923C929.277 570.923 929.277 570.923 929.277 570.923C929.277 570.923 929.277 570.923 929.277 570.923C929.277 570.923 929.277 570.923 929.277 570.923C929.277 570.923 929.277 570.923 929.277 570.923C929.277 570.923 929.277 570.923 929.277 570.923C929.277 570.923 929.277 570.923 929.277 570.923C929.277 570.923 929.277 570.923 929.277 570.923C929.277 570.923 929.277 570.923 929.277 570.923C929.277 570.923 929.277 570.923 929.277 570.923C929.277 570.923 929.277 570.923 929.277 570.923C929.277 570.923 929.277 570.923 929.277 570.923C929.277 570.923 929.277 570.923 929.277 570.923C929.277 570.923 929.277 570.923 929.277 570.923C929.277 570.923 929.277 570.923 929.277 570.923C929.277 570.923 929.277 570.923 929.277 570.923C929.277 570.923 929.277 570.923 929.277 570.923C929.277 570.923 929.277 570.923 929.277 570.923C929.277 570.923 929.277 570.923 929.277 570.923C929.277 570.923 929.277 570.923 929.277 570.923C929.277 570.923 929.277 570.923 929.277 570.923C929.277 570.923 929.277 570.923 929.277 570.923C929.277 570.923 929.277 570.923 929.277 570.923C929.277 570.923 929.277 570.923 929.277 570.923C929.277 570.923 929.277 570.923 929.277 570.923C929.277 570.923 929.277 570.923 929.277 570.923C929.277 570.923 929.277 570.923 929.277 570.923C929.277 570.923 929.277 570.923 929.277 570.923C929.277 570.923 929.277 570.923 929.277 570.923C929.277 570.923 929.277 570.923 929.277 570.923C929.277 570.923 929.277 570.923 929.277 570.923C929.277 570.923 929.277 570.923 929.277 570.923C929.277 570.923 929.277 570.923 929.277 570.923C929.277 570.923 929.277 570.923 929.277 570.923C929.277 570.923 929.277 570.923 929.277 570.923C929.277 570.923 929.277 570.923 929.277 570.923C929.277 570.923 929.277 570.923 929.277 570.923C929.277 570.923 929.277 570.923 929.277 570.923C929.277 570.923 929.277 570.923 929.277 570.923C929.277 570.923 929.277 570.923 929.277 570.923C929.277 570.923 929.277 570.923 929.277 570.923C929.277 570.923 929.277 570.923 929.277 570.923C929.277 570.923 929.277 570.923 929.277 570.923C929.277 570.923 929.277 570.923 929.277 570.923C929.277 570.923 929.277 570.923 929.277 570.923C929.277 570.923 929.277 570.923 929.277 570.923C929.277 570.923 929.277 570.923 929.277 570.923C929.277 570.923 929.277 570.923 929.277 570.923C929.277 570.923 929.277 570.923 929.277 570.923C929.277 570.923 929.277 570.923 929.277 570.923C929.277 570.923 929.277 570.923 929.277 570.923C929.277 570.923 929.277 570.923 929.277 570.923C929.277 570.923 929.277 570.923 929.277 570.923C929.277 570.923 929.277 570.923 929.277 570.923C929.277 570.923 929.277 570.923 929.277 570.923C929.277 570.923 929.277 570.923 929.277 570.923C929.277 570.923 929.277 570.923 929.277 570.923C929.277 570.923 929.277 570.923 929.277 570.923C929.277 570.923 929.277 570.923 929.277 570.923C929.277 570.923 929.277 570.923 929.277 570.923C929.277 570.923 929.277 570.923 929.277 570.923C929.277 570.923 929.277 570.923 929.277 570.923C929.277 570.923 929.277 570.923 929.277 570.923C929.277 570.923 929.277 570.923 929.277 570.923C929.277 570.923 929.277 570.923 929.277 570.923C929.277 570.923 929.277 570.923 929.277 570.923C929.277 570.923 929.277 570.923 929.277 570.923C929.277 570.923 929.277 570.923 929.277 570.923C929.277 570.923 929.277 570.923 929.277 570.923C929.277 570.923 929.277 570.923 929.277 570.923C929.277 570.923 929.277 570.923 929.277 570.923C929.277 570.923 929.277 570.923 929.277 570.923C929.277 570.923 929.277 570.923 929.277 570.923C929.277 570.923 929.277 570.923 929.277 570.923C929.277 570.923 929.277 570.923 929.277 570.923C929.277 570.923 929.277 570.923 929.277 570.923C929.277 570.923 929.277 570.923 929.277 570.923C929.277 570.923 929.277 570.923 929.277 570.923C929.277 570.923 929.277 570.923 929.277 570.923C929.277 570.923 929.277 570.923 929.277 570.923C929.277 570.923 929.277 570.923 929.277 570.923C929.277 570.923 929.277 570.923 929.277 570.923C929.277 570.923 929.277 570.923 929.277 570.923C929.277 570.923 929.277 570.923 929.277 570.923C929.277 570.923 929.277 570.923 929.277 570.923C929.277 570.923 929.277 570.923 929.277 570.923C929.277 570.923 929.277 570.923 929.277 570.923C929.277 570.923 929.277 570.923 929.277 570.923C929.277 570.923 929.277 570.923 929.277 570.923C929.277 570.923 929.277 570.923 929.277 570.923C929.277 570.923 929.277 570.923 929.277 570.923C929.277 570.923 929.277 570.923 929.277 570.923C929.277 570.923 929.277 570.923 929.277 570.923C929.277 570.923 929.277 570.923 929.277 570.923C929.277 570.923 929.277 570.923 929.277 570.923C929.277 570.923 929.277 570.923 929.277 570.923C929.277 570.923 929.277 570.923 929.277 570.923C929.277 570.923 929.277 570.923 929.277 570.923C929.277 570.923 929.277 570.923 929.277 570.923C929.277 570.923 929.277 570.923 929.277 570.923C929.277 570.923 929.277 570.923 929.277 570.923C929.277 570.923 929.277 570.923 929.277 570.923C929.277 570.923 929.277 570.923 929.277 570.923C929.277 570.923 929.277 570.923 929.277 570.923C929.277 570.923 929.277 570.923 929.277 570.923C929.277 570.923 929.277 570.923 929.277 570.923C929.277 570.923 929.277 570.923 929.277 570.923C929.277 570.923 929.277 570.923 929.277 570.923C929.277 570.923 929.277 570.923 929.277 570.923C929.277 570.923 929.277 570.923 929.277 570.923C929.277 570.923 929.277 570.923 929.277 570.923C929.277 570.923 929.277 570.923 929.277 570.923C929.277 570.923 929.277 570.923 929.277 570.923C929.277 570.923 929.277 570.923 929.277 570.923C929.277 570.923 929.277 570.923 929.277 570.923C929.277 570.923 929.277 570.923 929.277 570.923C929.277 570.923 929.277 570.923 929.277 570.923C929.277 570.923 929.277 570.923 929.277 570.923C929.277 570.923 929.277 570.923 929.277 570.923C929.277 570.923 929.277 570.923 929.277 570.923C929.277 570.923 929.277 570.923 929.277 570.923C929.277 570.923 929.277 570.923 929.277 570.923C929.277 570.923 929.277 570.923 929.277 570.923C929.277 570.923 929.277 570.923 929.277 570.923C929.277 570.923 929.277 570.923 929.277 570.923C929.277 570.923 929.277 570.923 929.277 570.923C929.277 570.923 929.277 570.923 929.277 570.923C929.277 570.923 929.277 570.923 929.277 570.923C929.277 570.923 929.277 570.923 929.277 570.923C929.277 570.923 929.277 570.923 929.277 570.923C929.277 570.923 929.277 570.923 929.277 570.923C929.277 570.923 929.277 570.923 929.277 570.923C929.277 570.923 929.277 570.923 929.277 570.923C929.277 570.923 929.277 570.923 929.277 570.923C929.277 570.923 929.277 570.923 929.277 570.923C929.277 570.923 929.277 570.923 929.277 570.923C929.277 570.923 929.277 570.923 929.277 570.923C929.277 570.923 929.277 570.923 929.277 570.923C929.277 570.923 929.277 570.923 929.277 570.923C929.277 570.923 929.277 570.923 929.277 570.923C929.277 570.923 929.277 570.923 929.277 570.923C929.277 570.923 929.277 570.923 929.277 570.923C929.277 570.923 929.277 570.923 929.277 570.923C929.277 570.923 929.277 570.923 929.277 570.923C929.277 570.923 929.277 570.923 929.277 570.923C929.277 570.923 929.277 570.923 929.277 570.923C929.277 570.923 929.277 570.923 929.277 570.923C929.277 570.923 929.277 570.923 929.277 570.923C929.277 570.923 929.277 570.923 929.277 570.923C929.277 570.923 929.277 570.923 929.277 570.923C929.277 570.923 929.277 570.923 929.277 570.923C929.277 570.923 929.277 570.923 929.277 570.923C929.277 570.923 929.277 570.923 929.277 570.923C929.277 570.923 929.277 570.923 929.277 570.923C929.277 570.923 929.277 570.923 929.277 570.923C929.277 570.923 929.277 570.923 929.277 570.923C929.277 570.923 929.277 570.923 929.277 570.923C929.277 570.923 929.277 570.923 929.277 570.923C929.277 570.923 929.277 570.923 929.277 570.923C929.277 570.923 929.277 570.923 929.277 570.923C929.277 570.923 929.277 570.923 929.277 570.923C929.277 570.923 929.277 570.923 929.277 570.923C929.277 570.923 929.277 570.923 929.277 570.923C929.277 570.923 929.277 570.923 929.277 570.923C929.277 570.923 929.277 570.923 929.277 570.923C929.277 570.923 929.277 570.923 929.277 570.923C929.277 570.923 929.277 570.923 929.277 570.923C929.277 570.923 929.277 570.923 929.277 570.923C929.277 570.923 929.277 570.923 929.277 570.923C929.277 570.923 929.277 570.923 929.277 570.923C929.277 570.923 929.277 570.923 929.277 570.923C929.277 570.923 929.277 570.923 929.277 570.923C929.277 570.923 929.277 570.923 929.277 570.923C929.277 570.923 929.277 570.923 929.277 570.923C929.277 570.923 929.277 570.923 929.277 570.923C929.277 570.923 929.277 570.923 929.277 570.923C929.277 570.923 929.277 570.923 929.277 570.923C929.277 570.923 929.277 570.923 929.277 570.923C929.277 570.923 929.277 570.923 929.277 570.923C929.277 570.923 929.277 570.923 929.277 570.923C929.277 570.923 929.277 570.923 929.277 570.923C929.277 570.923 929.277 570.923 929.277 570.923C929.277 570.923 929.277 570.923 929.277 570.923C929.277 570.923 929.277 570.923 929.277 570.923C929.277 570.923 929.277 570.923 929.277 570.923C929.277 570.923 929.277 570.923 929.277 570.923C929.277 570.923 929.277 570.923 929.277 570.923C929.277 570.923 929.277 570.923 929.277 570.923C929.277 570.923 929.277 570.923 929.277 570.923C929.277 570.923 929.277 570.923 929.277 570.923C929.277 570.923 929.277 570.923 929.277 570.923C929.277 570.923 929.277 570.923 929.277 570.923C929.277 570.923 929.277 570.923 929.277 570.923C929.277 570.923 929.277 570.923 929.277 570.923C929.277 570.923 929.277 570.923 929.277 570.923C929.277 570.923 929.277 570.923 929.277 570.923C929.277 570.923 929.277 570.923 929.277 570.923C929.277 570.923 929.277 570.923 929.277 570.923C929.277 570.923 929.277 570.923 929.277 570.923H927.277C927.277 570.923 927.277 570.923 927.277 570.923C927.277 570.923 927.277 570.923 927.277 570.923C927.277 570.923 927.277 570.923 927.277 570.923C927.277 570.923 927.277 570.923 927.277 570.923C927.277 570.923 927.277 570.923 927.277 570.923C927.277 570.923 927.277 570.923 927.277 570.923C927.277 570.923 927.277 570.923 927.277 570.923C927.277 570.923 927.277 570.923 927.277 570.923C927.277 570.923 927.277 570.923 927.277 570.923C927.277 570.923 927.277 570.923 927.277 570.923C927.277 570.923 927.277 570.923 927.277 570.923C927.277 570.923 927.277 570.923 927.277 570.923C927.277 570.923 927.277 570.923 927.277 570.923C927.277 570.923 927.277 570.923 927.277 570.923C927.277 570.923 927.277 570.923 927.277 570.923C927.277 570.923 927.277 570.923 927.277 570.923C927.277 570.923 927.277 570.923 927.277 570.923C927.277 570.923 927.277 570.923 927.277 570.923C927.277 570.923 927.277 570.923 927.277 570.923C927.277 570.923 927.277 570.923 927.277 570.923C927.277 570.923 927.277 570.923 927.277 570.923C927.277 570.923 927.277 570.923 927.277 570.923C927.277 570.923 927.277 570.923 927.277 570.923C927.277 570.923 927.277 570.923 927.277 570.923C927.277 570.923 927.277 570.923 927.277 570.923C927.277 570.923 927.277 570.923 927.277 570.923C927.277 570.923 927.277 570.923 927.277 570.923C927.277 570.923 927.277 570.923 927.277 570.923C927.277 570.923 927.277 570.923 927.277 570.923C927.277 570.923 927.277 570.923 927.277 570.923C927.277 570.923 927.277 570.923 927.277 570.923C927.277 570.923 927.277 570.923 927.277 570.923C927.277 570.923 927.277 570.923 927.277 570.923C927.277 570.923 927.277 570.923 927.277 570.923C927.277 570.923 927.277 570.923 927.277 570.923C927.277 570.923 927.277 570.923 927.277 570.923C927.277 570.923 927.277 570.923 927.277 570.923C927.277 570.923 927.277 570.923 927.277 570.923C927.277 570.923 927.277 570.923 927.277 570.923C927.277 570.923 927.277 570.923 927.277 570.923C927.277 570.923 927.277 570.923 927.277 570.923C927.277 570.923 927.277 570.923 927.277 570.923C927.277 570.923 927.277 570.923 927.277 570.923C927.277 570.923 927.277 570.923 927.277 570.923C927.277 570.923 927.277 570.923 927.277 570.923C927.277 570.923 927.277 570.923 927.277 570.923C927.277 570.923 927.277 570.923 927.277 570.923C927.277 570.923 927.277 570.923 927.277 570.923C927.277 570.923 927.277 570.923 927.277 570.923C927.277 570.923 927.277 570.923 927.277 570.923C927.277 570.923 927.277 570.923 927.277 570.923C927.277 570.923 927.277 570.923 927.277 570.923C927.277 570.923 927.277 570.923 927.277 570.923C927.277 570.923 927.277 570.923 927.277 570.923C927.277 570.923 927.277 570.923 927.277 570.923C927.277 570.923 927.277 570.923 927.277 570.923C927.277 570.923 927.277 570.923 927.277 570.923C927.277 570.923 927.277 570.923 927.277 570.923C927.277 570.923 927.277 570.923 927.277 570.923C927.277 570.923 927.277 570.923 927.277 570.923C927.277 570.923 927.277 570.923 927.277 570.923C927.277 570.923 927.277 570.923 927.277 570.923C927.277 570.923 927.277 570.923 927.277 570.923C927.277 570.923 927.277 570.923 927.277 570.923C927.277 570.923 927.277 570.923 927.277 570.923C927.277 570.923 927.277 570.923 927.277 570.923C927.277 570.923 927.277 570.923 927.277 570.923C927.277 570.923 927.277 570.923 927.277 570.923C927.277 570.923 927.277 570.923 927.277 570.923C927.277 570.923 927.277 570.923 927.277 570.923C927.277 570.923 927.277 570.923 927.277 570.923C927.277 570.923 927.277 570.923 927.277 570.923C927.277 570.923 927.277 570.923 927.277 570.923C927.277 570.923 927.277 570.923 927.277 570.923C927.277 570.923 927.277 570.923 927.277 570.923C927.277 570.923 927.277 570.923 927.277 570.923C927.277 570.923 927.277 570.923 927.277 570.923C927.277 570.923 927.277 570.923 927.277 570.923C927.277 570.923 927.277 570.923 927.277 570.923C927.277 570.923 927.277 570.923 927.277 570.923C927.277 570.923 927.277 570.923 927.277 570.923C927.277 570.923 927.277 570.923 927.277 570.923C927.277 570.923 927.277 570.923 927.277 570.923C927.277 570.923 927.277 570.923 927.277 570.923C927.277 570.923 927.277 570.923 927.277 570.923C927.277 570.923 927.277 570.923 927.277 570.923C927.277 570.923 927.277 570.923 927.277 570.923C927.277 570.923 927.277 570.923 927.277 570.923C927.277 570.923 927.277 570.923 927.277 570.923C927.277 570.923 927.277 570.923 927.277 570.923C927.277 570.923 927.277 570.923 927.277 570.923C927.277 570.923 927.277 570.923 927.277 570.923C927.277 570.923 927.277 570.923 927.277 570.923C927.277 570.923 927.277 570.923 927.277 570.923C927.277 570.923 927.277 570.923 927.277 570.923C927.277 570.923 927.277 570.923 927.277 570.923C927.277 570.923 927.277 570.923 927.277 570.923C927.277 570.923 927.277 570.923 927.277 570.923C927.277 570.923 927.277 570.923 927.277 570.923C927.277 570.923 927.277 570.923 927.277 570.923C927.277 570.923 927.277 570.923 927.277 570.923C927.277 570.923 927.277 570.923 927.277 570.923C927.277 570.923 927.277 570.923 927.277 570.923C927.277 570.923 927.277 570.923 927.277 570.923C927.277 570.923 927.277 570.923 927.277 570.923C927.277 570.923 927.277 570.923 927.277 570.923C927.277 570.923 927.277 570.923 927.277 570.923C927.277 570.923 927.277 570.923 927.277 570.923C927.277 570.923 927.277 570.923 927.277 570.923C927.277 570.923 927.277 570.923 927.277 570.923C927.277 570.923 927.277 570.923 927.277 570.923C927.277 570.923 927.277 570.923 927.277 570.923C927.277 570.923 927.277 570.923 927.277 570.923C927.277 570.923 927.277 570.923 927.277 570.923C927.277 570.923 927.277 570.923 927.277 570.923C927.277 570.923 927.277 570.923 927.277 570.923C927.277 570.923 927.277 570.923 927.277 570.923C927.277 570.923 927.277 570.923 927.277 570.923C927.277 570.923 927.277 570.923 927.277 570.923C927.277 570.923 927.277 570.923 927.277 570.923C927.277 570.923 927.277 570.923 927.277 570.923C927.277 570.923 927.277 570.923 927.277 570.923C927.277 570.923 927.277 570.923 927.277 570.923C927.277 570.923 927.277 570.923 927.277 570.923C927.277 570.923 927.277 570.923 927.277 570.923C927.277 570.923 927.277 570.923 927.277 570.923C927.277 570.923 927.277 570.923 927.277 570.923C927.277 570.923 927.277 570.923 927.277 570.923C927.277 570.923 927.277 570.923 927.277 570.923C927.277 570.923 927.277 570.923 927.277 570.923C927.277 570.923 927.277 570.923 927.277 570.923C927.277 570.923 927.277 570.923 927.277 570.923C927.277 570.923 927.277 570.923 927.277 570.923C927.277 570.923 927.277 570.923 927.277 570.923C927.277 570.923 927.277 570.923 927.277 570.923C927.277 570.923 927.277 570.923 927.277 570.923C927.277 570.923 927.277 570.923 927.277 570.923C927.277 570.923 927.277 570.923 927.277 570.923C927.277 570.923 927.277 570.923 927.277 570.923C927.277 570.923 927.277 570.923 927.277 570.923C927.277 570.923 927.277 570.923 927.277 570.923C927.277 570.923 927.277 570.923 927.277 570.923C927.277 570.923 927.277 570.923 927.277 570.923C927.277 570.923 927.277 570.923 927.277 570.923C927.277 570.923 927.277 570.923 927.277 570.923C927.277 570.923 927.277 570.923 927.277 570.923C927.277 570.923 927.277 570.923 927.277 570.923C927.277 570.923 927.277 570.923 927.277 570.923C927.277 570.923 927.277 570.923 927.277 570.923C927.277 570.923 927.277 570.923 927.277 570.923C927.277 570.923 927.277 570.923 927.277 570.923C927.277 570.923 927.277 570.923 927.277 570.923C927.277 570.923 927.277 570.923 927.277 570.923C927.277 570.923 927.277 570.923 927.277 570.923C927.277 570.923 927.277 570.923 927.277 570.923C927.277 570.923 927.277 570.923 927.277 570.923C927.277 570.923 927.277 570.923 927.277 570.923C927.277 570.923 927.277 570.923 927.277 570.923C927.277 570.923 927.277 570.923 927.277 570.923C927.277 570.923 927.277 570.923 927.277 570.923C927.277 570.923 927.277 570.923 927.277 570.923C927.277 570.923 927.277 570.923 927.277 570.923C927.277 570.923 927.277 570.923 927.277 570.923C927.277 570.923 927.277 570.923 927.277 570.923C927.277 570.923 927.277 570.923 927.277 570.923C927.277 570.923 927.277 570.923 927.277 570.923C927.277 570.923 927.277 570.923 927.277 570.923C927.277 570.923 927.277 570.923 927.277 570.923C927.277 570.923 927.277 570.923 927.277 570.923C927.277 570.923 927.277 570.923 927.277 570.923C927.277 570.923 927.277 570.923 927.277 570.923C927.277 570.923 927.277 570.923 927.277 570.923C927.277 570.923 927.277 570.923 927.277 570.923C927.277 570.923 927.277 570.923 927.277 570.923C927.277 570.923 927.277 570.923 927.277 570.923C927.277 570.923 927.277 570.923 927.277 570.923C927.277 570.923 927.277 570.923 927.277 570.923C927.277 570.923 927.277 570.923 927.277 570.923C927.277 570.923 927.277 570.923 927.277 570.923C927.277 570.923 927.277 570.923 927.277 570.923C927.277 570.923 927.277 570.923 927.277 570.923C927.277 570.923 927.277 570.923 927.277 570.923C927.277 570.923 927.277 570.923 927.277 570.923C927.277 570.923 927.277 570.923 927.277 570.923C927.277 570.923 927.277 570.923 927.277 570.923C927.277 570.923 927.277 570.923 927.277 570.923C927.277 570.923 927.277 570.923 927.277 570.923C927.277 570.923 927.277 570.923 927.277 570.923C927.277 570.923 927.277 570.923 927.277 570.923C927.277 570.923 927.277 570.923 927.277 570.923C927.277 570.923 927.277 570.923 927.277 570.923C927.277 570.923 927.277 570.923 927.277 570.923C927.277 570.923 927.277 570.923 927.277 570.923C927.277 570.923 927.277 570.923 927.277 570.923C927.277 570.923 927.277 570.923 927.277 570.923C927.277 570.923 927.277 570.923 927.277 570.923C927.277 570.923 927.277 570.923 927.277 570.923C927.277 570.923 927.277 570.923 927.277 570.923C927.277 570.923 927.277 570.923 927.277 570.923C927.277 570.923 927.277 570.923 927.277 570.923C927.277 570.923 927.277 570.923 927.277 570.923C927.277 570.923 927.277 570.923 927.277 570.923C927.277 570.923 927.277 570.923 927.277 570.923C927.277 570.923 927.277 570.923 927.277 570.923C927.277 570.923 927.277 570.923 927.277 570.923C927.277 570.923 927.277 570.923 927.277 570.923C927.277 570.923 927.277 570.923 927.277 570.923C927.277 570.923 927.277 570.923 927.277 570.923C927.277 570.923 927.277 570.923 927.277 570.923C927.277 570.923 927.277 570.923 927.277 570.923C927.277 570.923 927.277 570.923 927.277 570.923C927.277 570.923 927.277 570.923 927.277 570.923C927.277 570.923 927.277 570.923 927.277 570.923C927.277 570.923 927.277 570.923 927.277 570.923C927.277 570.923 927.277 570.923 927.277 570.923C927.277 570.923 927.277 570.923 927.277 570.923C927.277 570.923 927.277 570.923 927.277 570.923C927.277 570.923 927.277 570.923 927.277 570.923C927.277 570.923 927.277 570.923 927.277 570.923C927.277 570.923 927.277 570.923 927.277 570.923C927.277 570.923 927.277 570.923 927.277 570.923C927.277 570.923 927.277 570.923 927.277 570.923C927.277 570.923 927.277 570.923 927.277 570.923C927.277 570.923 927.277 570.923 927.277 570.923C927.277 570.923 927.277 570.923 927.277 570.923C927.277 570.923 927.277 570.923 927.277 570.923C927.277 570.923 927.277 570.923 927.277 570.923C927.277 570.923 927.277 570.923 927.277 570.923C927.277 570.923 927.277 570.923 927.277 570.923C927.277 570.923 927.277 570.923 927.277 570.923C927.277 570.923 927.277 570.923 927.277 570.923C927.277 570.923 927.277 570.923 927.277 570.923C927.277 570.923 927.277 570.923 927.277 570.923C927.277 570.923 927.277 570.923 927.277 570.923C927.277 570.923 927.277 570.923 927.277 570.923C927.277 570.923 927.277 570.923 927.277 570.923C927.277 570.923 927.277 570.923 927.277 570.923C927.277 570.923 927.277 570.923 927.277 570.923C927.277 570.923 927.277 570.923 927.277 570.922C927.277 570.922 927.277 570.922 927.277 570.922C927.277 570.922 927.277 570.922 927.277 570.922C927.277 570.922 927.277 570.922 927.277 570.922C927.277 570.922 927.277 570.922 927.277 570.922C927.277 570.922 927.277 570.922 927.277 570.922C927.277 570.922 927.277 570.922 927.277 570.922C927.277 570.922 927.277 570.922 927.277 570.922C927.277 570.922 927.277 570.922 927.277 570.922C927.277 570.922 927.277 570.922 927.277 570.922C927.277 570.922 927.277 570.922 927.277 570.922C927.277 570.922 927.277 570.922 927.277 570.922C927.277 570.922 927.277 570.922 927.277 570.922C927.277 570.922 927.277 570.922 927.277 570.922C927.277 570.922 927.277 570.922 927.277 570.922C927.277 570.922 927.277 570.922 927.277 570.922C927.277 570.922 927.277 570.922 927.277 570.922C927.277 570.922 927.277 570.922 927.277 570.922C927.277 570.922 927.277 570.922 927.277 570.922C927.277 570.922 927.277 570.922 927.277 570.922C927.277 570.922 927.277 570.922 927.277 570.922C927.277 570.922 927.277 570.922 927.277 570.922C927.277 570.922 927.277 570.922 927.277 570.922C927.277 570.922 927.277 570.922 927.277 570.922C927.277 570.922 927.277 570.922 927.277 570.922C927.277 570.922 927.277 570.922 927.277 570.922C927.277 570.922 927.277 570.922 927.277 570.922C927.277 570.922 927.277 570.922 927.277 570.922C927.277 570.922 927.277 570.922 927.277 570.922C927.277 570.922 927.277 570.922 927.277 570.922C927.277 570.922 927.277 570.922 927.277 570.922C927.277 570.922 927.277 570.922 927.277 570.922C927.277 570.922 927.277 570.922 927.277 570.922C927.277 570.922 927.277 570.922 927.277 570.922C927.277 570.922 927.277 570.922 927.277 570.922C927.277 570.922 927.277 570.922 927.277 570.922C927.277 570.922 927.277 570.922 927.277 570.922C927.277 570.922 927.277 570.922 927.277 570.922C927.277 570.922 927.277 570.922 927.277 570.922C927.277 570.922 927.277 570.922 927.277 570.922C927.277 570.922 927.277 570.922 927.277 570.922C927.277 570.922 927.277 570.922 927.277 570.922C927.277 570.922 927.277 570.922 927.277 570.922C927.277 570.922 927.277 570.922 927.277 570.922C927.277 570.922 927.277 570.922 927.277 570.922C927.277 570.922 927.277 570.922 927.277 570.922C927.277 570.922 927.277 570.922 927.277 570.922C927.277 570.922 927.277 570.922 927.277 570.922C927.277 570.922 927.277 570.922 927.277 570.922C927.277 570.922 927.277 570.922 927.277 570.922C927.277 570.922 927.277 570.922 927.277 570.922C927.277 570.922 927.277 570.922 927.277 570.922C927.277 570.922 927.277 570.922 927.277 570.922C927.277 570.922 927.277 570.922 927.277 570.922C927.277 570.922 927.277 570.922 927.277 570.922C927.277 570.922 927.277 570.922 927.277 570.922C927.277 570.922 927.277 570.922 927.277 570.922C927.277 570.922 927.277 570.922 927.277 570.922C927.277 570.922 927.277 570.922 927.277 570.922C927.277 570.922 927.277 570.922 927.277 570.922C927.277 570.922 927.277 570.922 927.277 570.922C927.277 570.922 927.277 570.922 927.277 570.922C927.277 570.922 927.277 570.922 927.277 570.922C927.277 570.922 927.277 570.922 927.277 570.922C927.277 570.922 927.277 570.922 927.277 570.922C927.277 570.922 927.277 570.922 927.277 570.922C927.277 570.922 927.277 570.922 927.277 570.922C927.277 570.922 927.277 570.922 927.277 570.922C927.277 570.922 927.277 570.922 927.277 570.922C927.277 570.922 927.277 570.922 927.277 570.922C927.277 570.922 927.277 570.922 927.277 570.922C927.277 570.922 927.277 570.922 927.277 570.922C927.277 570.922 927.277 570.922 927.277 570.922C927.277 570.922 927.277 570.922 927.277 570.922C927.277 570.922 927.277 570.922 927.277 570.922C927.277 570.922 927.277 570.922 927.277 570.922C927.277 570.922 927.277 570.922 927.277 570.922C927.277 570.922 927.277 570.922 927.277 570.922C927.277 570.922 927.277 570.922 927.277 570.922C927.277 570.922 927.277 570.922 927.277 570.922C927.277 570.922 927.277 570.922 927.277 570.922C927.277 570.922 927.277 570.922 927.277 570.922C927.277 570.922 927.277 570.922 927.277 570.922C927.277 570.922 927.277 570.922 927.277 570.922C927.277 570.922 927.277 570.922 927.277 570.922C927.277 570.922 927.277 570.922 927.277 570.922C927.277 570.922 927.277 570.922 927.277 570.922C927.277 570.922 927.277 570.922 927.277 570.922C927.277 570.922 927.277 570.922 927.277 570.922C927.277 570.922 927.277 570.922 927.277 570.922C927.277 570.922 927.277 570.922 927.277 570.922C927.277 570.922 927.277 570.922 927.277 570.922C927.277 570.922 927.277 570.922 927.277 570.922C927.277 570.922 927.277 570.922 927.277 570.922C927.277 570.922 927.277 570.922 927.277 570.922C927.277 570.922 927.277 570.922 927.277 570.922C927.277 570.922 927.277 570.922 927.277 570.922C927.277 570.922 927.277 570.922 927.277 570.922C927.277 570.922 927.277 570.922 927.277 570.922C927.277 570.922 927.277 570.922 927.277 570.922C927.277 570.922 927.277 570.922 927.277 570.922C927.277 570.922 927.277 570.922 927.277 570.922C927.277 570.922 927.277 570.922 927.277 570.922C927.277 570.922 927.277 570.922 927.277 570.922C927.277 570.922 927.277 570.922 927.277 570.922C927.277 570.922 927.277 570.922 927.277 570.922C927.277 570.922 927.277 570.922 927.277 570.922C927.277 570.922 927.277 570.922 927.277 570.922C927.277 570.922 927.277 570.922 927.277 570.922C927.277 570.922 927.277 570.922 927.277 570.922C927.277 570.922 927.277 570.922 927.277 570.922C927.277 570.922 927.277 570.922 927.277 570.922C927.277 570.922 927.277 570.922 927.277 570.922C927.277 570.922 927.277 570.922 927.277 570.922C927.277 570.922 927.277 570.922 927.277 570.922C927.277 570.922 927.277 570.922 927.277 570.922C927.277 570.922 927.277 570.922 927.277 570.922C927.277 570.922 927.277 570.922 927.277 570.922C927.277 570.922 927.277 570.922 927.277 570.922C927.277 570.922 927.277 570.922 927.277 570.922C927.277 570.922 927.277 570.922 927.277 570.922C927.277 570.922 927.277 570.922 927.277 570.922C927.277 570.922 927.277 570.922 927.277 570.922C927.277 570.922 927.277 570.922 927.277 570.922C927.277 570.922 927.277 570.922 927.277 570.922C927.277 570.922 927.277 570.922 927.277 570.922C927.277 570.922 927.277 570.922 927.277 570.922C927.277 570.922 927.277 570.922 927.277 570.922C927.277 570.922 927.277 570.922 927.277 570.922C927.277 570.922 927.277 570.922 927.277 570.922C927.277 570.922 927.277 570.922 927.277 570.922C927.277 570.922 927.277 570.922 927.277 570.922C927.277 570.922 927.277 570.922 927.277 570.922C927.277 570.922 927.277 570.922 927.277 570.922C927.277 570.922 927.277 570.922 927.277 570.922C927.277 570.922 927.277 570.922 927.277 570.922C927.277 570.922 927.277 570.922 927.277 570.922C927.277 570.922 927.277 570.922 927.277 570.922C927.277 570.922 927.277 570.922 927.277 570.922C927.277 570.922 927.277 570.922 927.277 570.922C927.277 570.922 927.277 570.922 927.277 570.922C927.277 570.922 927.277 570.922 927.277 570.922C927.277 570.922 927.277 570.922 927.277 570.922C927.277 570.922 927.277 570.922 927.277 570.922C927.277 570.922 927.277 570.922 927.277 570.922C927.277 570.922 927.277 570.922 927.277 570.922C927.277 570.922 927.277 570.922 927.277 570.922C927.277 570.922 927.277 570.922 927.277 570.922C927.277 570.922 927.277 570.922 927.277 570.922C927.277 570.922 927.277 570.922 927.277 570.922C927.277 570.922 927.277 570.922 927.277 570.922C927.277 570.922 927.277 570.922 927.277 570.922C927.277 570.922 927.277 570.922 927.277 570.922C927.277 570.922 927.277 570.922 927.277 570.922C927.277 570.922 927.277 570.922 927.277 570.922C927.277 570.922 927.277 570.922 927.277 570.922C927.277 570.922 927.277 570.922 927.277 570.922C927.277 570.922 927.277 570.922 927.277 570.922C927.277 570.922 927.277 570.922 927.277 570.922C927.277 570.922 927.277 570.922 927.277 570.922C927.277 570.922 927.277 570.922 927.277 570.922C927.277 570.922 927.277 570.922 927.277 570.922C927.277 570.922 927.277 570.922 927.277 570.922C927.277 570.922 927.277 570.922 927.277 570.922C927.277 570.922 927.277 570.922 927.277 570.922C927.277 570.922 927.277 570.922 927.277 570.922C927.277 570.922 927.277 570.922 927.277 570.922C927.277 570.922 927.277 570.922 927.277 570.922C927.277 570.922 927.277 570.922 927.277 570.922C927.277 570.922 927.277 570.922 927.277 570.922C927.277 570.922 927.277 570.922 927.277 570.922C927.277 570.922 927.277 570.922 927.277 570.922C927.277 570.922 927.277 570.922 927.277 570.922C927.277 570.922 927.277 570.922 927.277 570.922C927.277 570.922 927.277 570.922 927.277 570.922C927.277 570.922 927.277 570.922 927.277 570.922C927.277 570.922 927.277 570.922 927.277 570.922C927.277 570.922 927.277 570.922 927.277 570.922C927.277 570.922 927.277 570.922 927.277 570.922C927.277 570.922 927.277 570.922 927.277 570.922C927.277 570.922 927.277 570.922 927.277 570.922C927.277 570.922 927.277 570.922 927.277 570.922C927.277 570.922 927.277 570.922 927.277 570.922C927.277 570.922 927.277 570.922 927.277 570.922C927.277 570.922 927.277 570.922 927.277 570.922C927.277 570.922 927.277 570.922 927.277 570.922C927.277 570.922 927.277 570.922 927.277 570.922C927.277 570.922 927.277 570.922 927.277 570.922C927.277 570.922 927.277 570.922 927.277 570.922C927.277 570.922 927.277 570.922 927.277 570.922C927.277 570.922 927.277 570.922 927.277 570.922C927.277 570.922 927.277 570.922 927.277 570.922C927.277 570.922 927.277 570.922 927.277 570.922C927.277 570.922 927.277 570.922 927.277 570.922C927.277 570.922 927.277 570.922 927.277 570.922C927.277 570.922 927.277 570.922 927.277 570.922C927.277 570.922 927.277 570.922 927.277 570.922C927.277 570.922 927.277 570.922 927.277 570.922C927.277 570.922 927.277 570.922 927.277 570.922C927.277 570.922 927.277 570.922 927.277 570.922C927.277 570.922 927.277 570.922 927.277 570.922C927.277 570.922 927.277 570.922 927.277 570.922C927.277 570.922 927.277 570.922 927.277 570.922C927.277 570.922 927.277 570.922 927.277 570.922C927.277 570.922 927.277 570.922 927.277 570.922C927.277 570.922 927.277 570.922 927.277 570.922C927.277 570.922 927.277 570.922 927.277 570.922C927.277 570.922 927.277 570.922 927.277 570.922C927.277 570.922 927.277 570.922 927.277 570.922C927.277 570.922 927.277 570.922 927.277 570.922C927.277 570.922 927.277 570.922 927.277 570.922C927.277 570.922 927.277 570.922 927.277 570.922C927.277 570.922 927.277 570.922 927.277 570.922C927.277 570.922 927.277 570.922 927.277 570.922C927.277 570.922 927.277 570.922 927.277 570.922C927.277 570.922 927.277 570.922 927.277 570.922C927.277 570.922 927.277 570.922 927.277 570.922C927.277 570.922 927.277 570.922 927.277 570.922C927.277 570.922 927.277 570.922 927.277 570.922C927.277 570.922 927.277 570.922 927.277 570.922C927.277 570.922 927.277 570.922 927.277 570.922C927.277 570.922 927.277 570.922 927.277 570.922C927.277 570.922 927.277 570.922 927.277 570.922C927.277 570.922 927.277 570.922 927.277 570.922C927.277 570.922 927.277 570.922 927.277 570.922C927.277 570.922 927.277 570.922 927.277 570.922C927.277 570.922 927.277 570.922 927.277 570.922C927.277 570.922 927.277 570.922 927.277 570.922C927.277 570.922 927.277 570.922 927.277 570.922C927.277 570.922 927.277 570.922 927.277 570.922C927.277 570.922 927.277 570.922 927.277 570.922C927.277 570.922 927.277 570.922 927.277 570.922C927.277 570.922 927.277 570.922 927.277 570.922C927.277 570.922 927.277 570.922 927.277 570.922C927.277 570.922 927.277 570.922 927.277 570.922C927.277 570.922 927.277 570.922 927.277 570.922C927.277 570.922 927.277 570.922 927.277 570.922C927.277 570.922 927.277 570.922 927.277 570.922C927.277 570.922 927.277 570.922 927.277 570.922C927.277 570.922 927.277 570.922 927.277 570.922C927.277 570.922 927.277 570.922 927.277 570.922C927.277 570.922 927.277 570.922 927.277 570.922C927.277 570.922 927.277 570.922 927.277 570.922C927.277 570.922 927.277 570.922 927.277 570.922C927.277 570.922 927.277 570.922 927.277 570.922C927.277 570.922 927.277 570.922 927.277 570.922C927.277 570.922 927.277 570.922 927.277 570.922C927.277 570.922 927.277 570.922 927.277 570.922C927.277 570.922 927.277 570.922 927.277 570.922C927.277 570.922 927.277 570.922 927.277 570.922C927.277 570.922 927.277 570.922 927.277 570.922C927.277 570.922 927.277 570.922 927.277 570.922C927.277 570.922 927.277 570.922 927.277 570.922C927.277 570.922 927.277 570.922 927.277 570.922C927.277 570.922 927.277 570.922 927.277 570.922C927.277 570.922 927.277 570.922 927.277 570.922C927.277 570.922 927.277 570.922 927.277 570.922C927.277 570.922 927.277 570.922 927.277 570.922C927.277 570.922 927.277 570.922 927.277 570.922C927.277 570.922 927.277 570.922 927.277 570.922C927.277 570.922 927.277 570.922 927.277 570.922C927.277 570.922 927.277 570.922 927.277 570.922C927.277 570.922 927.277 570.922 927.277 570.922C927.277 570.922 927.277 570.922 927.277 570.922C927.277 570.922 927.277 570.922 927.277 570.922C927.277 570.922 927.277 570.922 927.277 570.922C927.277 570.922 927.277 570.922 927.277 570.922C927.277 570.922 927.277 570.922 927.277 570.922C927.277 570.922 927.277 570.922 927.277 570.922C927.277 570.922 927.277 570.922 927.277 570.922C927.277 570.922 927.277 570.922 927.277 570.922C927.277 570.922 927.277 570.922 927.277 570.922C927.277 570.922 927.277 570.922 927.277 570.922C927.277 570.922 927.277 570.922 927.277 570.922H929.277ZM900.171 537.539C916.374 537.539 929.277 552.623 929.277 570.922H927.277C927.277 553.452 915.013 539.539 900.171 539.539V537.539ZM871.065 570.922C871.065 552.623 883.968 537.539 900.171 537.539V539.539C885.329 539.539 873.065 553.452 873.065 570.922H871.065ZM871.065 570.923C871.065 570.923 871.065 570.922 871.065 570.922H873.065C873.065 570.922 873.065 570.923 873.065 570.923L871.065 570.923Z" fill="#FFC90E" mask="url(#path-99-inside-1)"/>
<mask id="path-101-inside-2" fill="white">
<path fill-rule="evenodd" clip-rule="evenodd" d="M896.43 536.181C895.325 536.181 894.43 537.077 894.43 538.181V565.481H905.224V538.181C905.224 537.077 904.329 536.181 903.224 536.181H896.43ZM903.241 568.928C903.236 568.928 903.23 568.928 903.224 568.928H896.43C896.424 568.928 896.419 568.928 896.413 568.928H903.241Z"/>
</mask>
<path fill-rule="evenodd" clip-rule="evenodd" d="M896.43 536.181C895.325 536.181 894.43 537.077 894.43 538.181V565.481H905.224V538.181C905.224 537.077 904.329 536.181 903.224 536.181H896.43ZM903.241 568.928C903.236 568.928 903.23 568.928 903.224 568.928H896.43C896.424 568.928 896.419 568.928 896.413 568.928H903.241Z" fill="#6B6054"/>
<path d="M894.43 565.481V566.481H893.43V565.481H894.43ZM905.224 565.481H906.224V566.481H905.224V565.481ZM903.241 568.928V567.928L903.249 569.928L903.241 568.928ZM896.413 568.928L896.405 569.928L896.413 567.928V568.928ZM893.43 538.181C893.43 536.525 894.773 535.181 896.43 535.181V537.181C895.878 537.181 895.43 537.629 895.43 538.181H893.43ZM893.43 565.481V538.181H895.43V565.481H893.43ZM894.43 564.481H905.224V566.481H894.43V564.481ZM906.224 538.181V565.481H904.224V538.181H906.224ZM903.224 535.181C904.881 535.181 906.224 536.525 906.224 538.181H904.224C904.224 537.629 903.777 537.181 903.224 537.181V535.181ZM896.43 535.181H903.224V537.181H896.43V535.181ZM903.249 569.928C903.241 569.928 903.233 569.928 903.224 569.928V567.928C903.227 567.928 903.23 567.928 903.233 567.928L903.249 569.928ZM903.224 569.928H896.43V567.928H903.224V569.928ZM896.43 569.928C896.421 569.928 896.413 569.928 896.405 569.928L896.421 567.928C896.424 567.928 896.427 567.928 896.43 567.928V569.928ZM903.241 569.928H896.413V567.928H903.241V569.928Z" fill="#FFC90E" mask="url(#path-101-inside-2)"/>
<rect x="870.702" y="563.712" width="59.1406" height="9.79447" rx="1.5" fill="#6B6054" stroke="#FFC90E"/>
<circle cx="909" cy="382" r="45" fill="#D15D39" stroke="#6B6054" stroke-width="10"/>
<line y1="737.5" x2="1080" y2="737.5" stroke="#2D1C13"/>
<path d="M76.6094 402H59.793V317.977H76.6094V351.609H110.184V317.977H127V402H110.184V368.426H76.6094V402ZM156.941 402H140.945V339.246H144.812L150.086 345.34C152.664 342.996 155.574 341.199 158.816 339.949C162.098 338.66 165.516 338.016 169.07 338.016C172.898 338.016 176.512 338.758 179.91 340.242C183.309 341.688 186.277 343.699 188.816 346.277C191.355 348.816 193.348 351.805 194.793 355.242C196.277 358.641 197.02 362.273 197.02 366.141V402H181.023V366.141C181.023 364.5 180.711 362.957 180.086 361.512C179.461 360.027 178.602 358.738 177.508 357.645C176.414 356.551 175.145 355.691 173.699 355.066C172.254 354.441 170.711 354.129 169.07 354.129C167.391 354.129 165.809 354.441 164.324 355.066C162.84 355.691 161.551 356.551 160.457 357.645C159.363 358.738 158.504 360.027 157.879 361.512C157.254 362.957 156.941 364.5 156.941 366.141V402ZM233.406 386.648C234.031 386.844 234.656 386.98 235.281 387.059C235.906 387.098 236.531 387.117 237.156 387.117C238.719 387.117 240.223 386.902 241.668 386.473C243.113 386.043 244.461 385.438 245.711 384.656C247 383.836 248.133 382.859 249.109 381.727C250.125 380.555 250.945 379.266 251.57 377.859L263.289 389.637C261.805 391.746 260.086 393.641 258.133 395.32C256.219 397 254.129 398.426 251.863 399.598C249.637 400.77 247.273 401.648 244.773 402.234C242.312 402.859 239.773 403.172 237.156 403.172C232.742 403.172 228.582 402.352 224.676 400.711C220.809 399.07 217.41 396.785 214.48 393.855C211.59 390.926 209.305 387.449 207.625 383.426C205.945 379.363 205.105 374.91 205.105 370.066C205.105 365.105 205.945 360.574 207.625 356.473C209.305 352.371 211.59 348.875 214.48 345.984C217.41 343.094 220.809 340.848 224.676 339.246C228.582 337.645 232.742 336.844 237.156 336.844C239.773 336.844 242.332 337.156 244.832 337.781C247.332 338.406 249.695 339.305 251.922 340.477C254.188 341.648 256.297 343.094 258.25 344.812C260.203 346.492 261.922 348.387 263.406 350.496L233.406 386.648ZM241.609 353.66C240.867 353.387 240.125 353.211 239.383 353.133C238.68 353.055 237.938 353.016 237.156 353.016C234.969 353.016 232.898 353.426 230.945 354.246C229.031 355.027 227.352 356.16 225.906 357.645C224.5 359.129 223.387 360.926 222.566 363.035C221.746 365.105 221.336 367.449 221.336 370.066C221.336 370.652 221.355 371.316 221.395 372.059C221.473 372.801 221.57 373.562 221.688 374.344C221.844 375.086 222.02 375.809 222.215 376.512C222.41 377.215 222.664 377.84 222.977 378.387L241.609 353.66ZM291.824 402H275.828V355.184H268.035V339.246H275.828V336.258C275.828 332.391 276.551 328.758 277.996 325.359C279.48 321.961 281.492 319.012 284.031 316.512C286.609 313.973 289.598 311.98 292.996 310.535C296.395 309.051 300.027 308.309 303.895 308.309H315.906V324.246H303.895C302.176 324.246 300.574 324.559 299.09 325.184C297.645 325.77 296.375 326.609 295.281 327.703C294.227 328.758 293.387 330.027 292.762 331.512C292.137 332.957 291.824 334.539 291.824 336.258V339.246H311.453V355.184H291.824V402ZM378.66 402H374.793L368.582 393.387C367.059 394.754 365.438 396.043 363.719 397.254C362.039 398.426 360.262 399.461 358.387 400.359C356.512 401.219 354.578 401.902 352.586 402.41C350.633 402.918 348.641 403.172 346.609 403.172C342.195 403.172 338.035 402.43 334.129 400.945C330.262 399.461 326.863 397.312 323.934 394.5C321.043 391.648 318.758 388.172 317.078 384.07C315.398 379.969 314.559 375.301 314.559 370.066C314.559 365.184 315.398 360.711 317.078 356.648C318.758 352.547 321.043 349.031 323.934 346.102C326.863 343.172 330.262 340.906 334.129 339.305C338.035 337.664 342.195 336.844 346.609 336.844C348.641 336.844 350.652 337.098 352.645 337.605C354.637 338.113 356.57 338.816 358.445 339.715C360.32 340.613 362.098 341.668 363.777 342.879C365.496 344.09 367.098 345.398 368.582 346.805L374.793 339.363H378.66V402ZM362.547 370.066C362.547 367.879 362.117 365.77 361.258 363.738C360.438 361.668 359.305 359.852 357.859 358.289C356.414 356.688 354.715 355.418 352.762 354.48C350.848 353.504 348.797 353.016 346.609 353.016C344.422 353.016 342.352 353.387 340.398 354.129C338.484 354.871 336.805 355.965 335.359 357.41C333.953 358.855 332.84 360.652 332.02 362.801C331.199 364.91 330.789 367.332 330.789 370.066C330.789 372.801 331.199 375.242 332.02 377.391C332.84 379.5 333.953 381.277 335.359 382.723C336.805 384.168 338.484 385.262 340.398 386.004C342.352 386.746 344.422 387.117 346.609 387.117C348.797 387.117 350.848 386.648 352.762 385.711C354.715 384.734 356.414 383.465 357.859 381.902C359.305 380.301 360.438 378.484 361.258 376.453C362.117 374.383 362.547 372.254 362.547 370.066ZM422.371 402C418.504 402 414.871 401.277 411.473 399.832C408.074 398.348 405.086 396.336 402.508 393.797C399.969 391.219 397.957 388.23 396.473 384.832C395.027 381.434 394.305 377.801 394.305 373.934V355.301H386.512V339.363H394.305V314.285H410.242V339.363H434.5V355.301H410.242V373.934C410.242 375.613 410.555 377.195 411.18 378.68C411.805 380.125 412.664 381.395 413.758 382.488C414.852 383.582 416.141 384.461 417.625 385.125C419.109 385.75 420.691 386.062 422.371 386.062H434.5V402H422.371ZM504.285 402H500.418L494.207 393.387C492.684 394.754 491.062 396.043 489.344 397.254C487.664 398.426 485.887 399.461 484.012 400.359C482.137 401.219 480.203 401.902 478.211 402.41C476.258 402.918 474.266 403.172 472.234 403.172C467.82 403.172 463.66 402.43 459.754 400.945C455.887 399.461 452.488 397.312 449.559 394.5C446.668 391.648 444.383 388.172 442.703 384.07C441.023 379.969 440.184 375.301 440.184 370.066C440.184 365.184 441.023 360.711 442.703 356.648C444.383 352.547 446.668 349.031 449.559 346.102C452.488 343.172 455.887 340.906 459.754 339.305C463.66 337.664 467.82 336.844 472.234 336.844C474.266 336.844 476.277 337.098 478.27 337.605C480.262 338.113 482.195 338.816 484.07 339.715C485.945 340.613 487.723 341.668 489.402 342.879C491.121 344.09 492.723 345.398 494.207 346.805L500.418 339.363H504.285V402ZM488.172 370.066C488.172 367.879 487.742 365.77 486.883 363.738C486.062 361.668 484.93 359.852 483.484 358.289C482.039 356.688 480.34 355.418 478.387 354.48C476.473 353.504 474.422 353.016 472.234 353.016C470.047 353.016 467.977 353.387 466.023 354.129C464.109 354.871 462.43 355.965 460.984 357.41C459.578 358.855 458.465 360.652 457.645 362.801C456.824 364.91 456.414 367.332 456.414 370.066C456.414 372.801 456.824 375.242 457.645 377.391C458.465 379.5 459.578 381.277 460.984 382.723C462.43 384.168 464.109 385.262 466.023 386.004C467.977 386.746 470.047 387.117 472.234 387.117C474.422 387.117 476.473 386.648 478.387 385.711C480.34 384.734 482.039 383.465 483.484 381.902C484.93 380.301 486.062 378.484 486.883 376.453C487.742 374.383 488.172 372.254 488.172 370.066ZM536.863 402H520.867V355.184H513.074V339.246H520.867V336.258C520.867 332.391 521.59 328.758 523.035 325.359C524.52 321.961 526.531 319.012 529.07 316.512C531.648 313.973 534.637 311.98 538.035 310.535C541.434 309.051 545.066 308.309 548.934 308.309H560.945V324.246H548.934C547.215 324.246 545.613 324.559 544.129 325.184C542.684 325.77 541.414 326.609 540.32 327.703C539.266 328.758 538.426 330.027 537.801 331.512C537.176 332.957 536.863 334.539 536.863 336.258V339.246H556.492V355.184H536.863V402ZM580.223 402H564.109V314.285H580.223V402Z" fill="#2D1C13"/>
<circle cx="737" cy="714" r="45" fill="#FFC90E" stroke="#6B6054" stroke-width="10"/>
</g>
<defs>
<clipPath id="clip0">
<rect width="1080" height="738.13" fill="white"/>
</clipPath>
</defs>
</svg>
